<?xml version="1.0" encoding="UTF-8"?>
<svg id="Layer_1" data-name="Layer 1" xmlns="http://www.w3.org/2000/svg" viewBox="0 0 1000 1000">
  <defs>
    <style>
      .cls-1 {
        fill: #133c55;
        stroke-width: 0px;
      }

      .cls-2 {
        stroke-width: 22px;
      }

      .cls-2, .cls-3 {
        fill: none;
        stroke: #133c55;
        stroke-miterlimit: 10;
      }

      .cls-3 {
        stroke-width: 20px;
      }
    </style>
  </defs>
  <g>
    <polygon class="cls-1" points="592.71 876.65 874.5 712.09 865.5 520.09 786.5 448.09 740.5 593.09 660.5 518.09 592.71 592.59 592.71 876.65"/>
    <polygon class="cls-1" points="404.46 570.24 382.89 599.78 324.5 539.09 252.5 610.09 205.5 432.09 128.81 488.05 125.5 709.09 404.46 874.67 404.46 570.24"/>
  </g>
  <circle class="cls-2" cx="498.59" cy="197.19" r="44.81"/>
  <polygon class="cls-3" points="873.11 715.56 873.11 284.44 499.75 68.88 126.39 284.44 126.39 715.56 499.75 931.12 873.11 715.56"/>
  <path class="cls-1" d="M341.09,404v72h27v-27c19.82,3.12,40.04,5.39,60.63,6.86l69.87,61.14,70.97-62.1c19.62-1.48,39.47-3.46,59.53-5.9v27h27v-72c-102.97,12.23-208.04,11.77-315,0Z"/>
  <path class="cls-1" d="M452.87,364c33.25,3.2,64.03,3.55,91.44,0v36c-27.78,4.39-58.26,4.4-91.44,0v-36Z"/>
  <path class="cls-1" d="M452.87,312.43c33.25,3.2,64.03,3.55,91.44,0v36c-27.78,4.39-58.26,4.4-91.44,0v-36Z"/>
  <path class="cls-1" d="M452.87,260.86c33.25,3.2,64.03,3.55,91.44,0v36c-27.78,4.39-58.26,4.4-91.44,0v-36Z"/>
  <g>
    <polygon class="cls-1" points="492.07 526.33 419.89 463 419.89 883 492.07 928.86 492.07 526.33"/>
    <polygon class="cls-1" points="505.1 528.11 505.1 928.86 577.29 883 577.29 463 505.1 528.11"/>
  </g>
</svg>