<?xml version="1.0" encoding="UTF-8"?>
<svg id="Layer_1" data-name="Layer 1" xmlns="http://www.w3.org/2000/svg" viewBox="0 0 4143.78 885.33">
  <defs>
    <style>
      .cls-1 {
        stroke-width: 22px;
      }

      .cls-1, .cls-2 {
        fill: none;
        stroke: #fff;
        stroke-miterlimit: 10;
      }

      .cls-3 {
        letter-spacing: 0em;
      }

      .cls-4 {
        font-family: LTCarpet-Medium, 'LT Carpet';
        font-size: 600px;
        font-weight: 500;
      }

      .cls-4, .cls-5 {
        fill: #fff;
      }

      .cls-6 {
        letter-spacing: -.08em;
      }

      .cls-5 {
        stroke-width: 0px;
      }

      .cls-2 {
        stroke-width: 20px;
      }
    </style>
  </defs>
  <g>
    <g>
      <polygon class="cls-5" points="476.32 819.31 758.11 654.75 749.11 462.75 670.11 390.75 624.11 535.75 544.11 460.75 476.32 535.26 476.32 819.31"/>
      <polygon class="cls-5" points="288.07 512.91 266.5 542.44 208.11 481.75 136.11 552.75 89.11 374.75 12.42 430.72 9.11 651.75 288.07 817.34 288.07 512.91"/>
    </g>
    <circle class="cls-1" cx="382.2" cy="139.86" r="44.81"/>
    <polygon class="cls-2" points="756.72 658.22 756.72 227.11 383.36 11.55 10 227.11 10 658.22 383.36 873.78 756.72 658.22"/>
    <path class="cls-5" d="M224.7,346.66v72h27v-27c19.82,3.12,40.04,5.39,60.63,6.86l69.87,61.14,70.97-62.1c19.62-1.48,39.47-3.46,59.53-5.9v27h27v-72c-102.97,12.23-208.04,11.77-315,0Z"/>
    <path class="cls-5" d="M336.48,306.66c33.25,3.2,64.03,3.55,91.44,0v36c-27.78,4.39-58.26,4.4-91.44,0v-36Z"/>
    <path class="cls-5" d="M336.48,255.1c33.25,3.2,64.03,3.55,91.44,0v36c-27.78,4.39-58.26,4.4-91.44,0v-36Z"/>
    <path class="cls-5" d="M336.48,203.53c33.25,3.2,64.03,3.55,91.44,0v36c-27.78,4.39-58.26,4.4-91.44,0v-36Z"/>
    <g>
      <polygon class="cls-5" points="375.68 468.99 303.5 405.66 303.5 825.66 375.68 871.52 375.68 468.99"/>
      <polygon class="cls-5" points="388.71 470.77 388.71 871.52 460.9 825.66 460.9 405.66 388.71 470.77"/>
    </g>
  </g>
  <text class="cls-4" transform="translate(840.22 654.06)"><tspan x="0" y="0">E</tspan><tspan class="cls-6" x="250.8" y="0">X</tspan><tspan class="cls-3" x="514.8" y="0">CALIBUR TEES</tspan></text>
</svg>